<svg width="192" height="36" viewBox="0 0 192 36" fill="none" xmlns="http://www.w3.org/2000/svg">
<path d="M59.5193 7.56273C58.4609 7.02749 57.1384 6.76108 55.5543 6.76108H48.4258V26.6896H52.062V18.8171H55.5543C57.2728 18.8171 58.6505 18.5171 59.6921 17.9146C60.7314 17.3122 61.485 16.5537 61.9531 15.6393C62.4211 14.7224 62.6539 13.7791 62.6539 12.8047C62.6539 11.679 62.3971 10.6565 61.8811 9.74208C61.365 8.82522 60.5778 8.10037 59.5193 7.56513V7.56273ZM58.1032 15.0368C57.5488 15.5913 56.6727 15.8673 55.4679 15.8673H52.0596V9.71088H55.4679C56.6703 9.71088 57.5488 9.98209 58.1032 10.5269C58.6577 11.0718 58.9337 11.8302 58.9337 12.8023C58.9337 13.7743 58.6577 14.4824 58.1032 15.0368Z" fill="#010127"/>
<path d="M75.5787 11.5997C74.4243 10.9516 73.0922 10.6252 71.5849 10.6252C70.0776 10.6252 68.6399 10.954 67.447 11.6141C66.2541 12.2717 65.3229 13.2126 64.6556 14.4343C63.9884 15.656 63.6523 17.1057 63.6523 18.7858C63.6523 20.4659 63.9956 21.8628 64.682 23.094C65.3685 24.3253 66.3045 25.2758 67.4878 25.943C68.6711 26.6103 70.0368 26.9463 71.5825 26.9463C72.881 26.9463 74.0258 26.7183 75.0171 26.2599C76.0084 25.8014 76.8364 25.1918 77.4941 24.4285C78.1517 23.6653 78.6149 22.8156 78.8838 21.8796H74.9907C74.6859 22.434 74.2706 22.9116 73.745 23.3101C73.2194 23.7109 72.4801 23.9125 71.5249 23.9125C70.7616 23.9125 70.0608 23.7349 69.4199 23.3821C68.7791 23.0292 68.2751 22.518 67.903 21.8508C67.603 21.3107 67.4254 20.6915 67.3678 19.9906H79.1982C79.2366 19.7434 79.2654 19.4794 79.2846 19.2034C79.3038 18.9274 79.3134 18.6634 79.3134 18.4161C79.3134 16.8704 78.9798 15.5095 78.3101 14.3359C77.6429 13.1622 76.7308 12.2501 75.5763 11.6021L75.5787 11.5997ZM67.4014 17.3553C67.4782 16.7528 67.6414 16.2176 67.8934 15.752C68.2558 15.0847 68.7431 14.5639 69.3527 14.1919C69.9624 13.8198 70.6704 13.6326 71.4721 13.6326C72.0073 13.6326 72.5209 13.7142 73.0178 13.875C73.5146 14.0383 73.949 14.2855 74.3211 14.6191C74.6931 14.9527 74.9883 15.3487 75.2091 15.8072C75.4275 16.2656 75.5379 16.7816 75.5379 17.3529H67.4014V17.3553Z" fill="#010127"/>
<path d="M93.4744 13.1454C93.1504 12.7062 92.7351 12.2957 92.2287 11.9141C91.7223 11.5325 91.127 11.2229 90.4382 10.9828C89.7517 10.7452 88.9669 10.6252 88.0908 10.6252C86.7347 10.6252 85.4987 10.954 84.3826 11.6141C83.2665 12.2717 82.3832 13.2126 81.7352 14.4343C81.0872 15.656 80.7607 17.0889 80.7607 18.7282C80.7607 20.3675 81.0848 21.7764 81.7352 23.0076C82.3832 24.2389 83.2665 25.2038 84.3826 25.8998C85.4987 26.5959 86.7155 26.9439 88.0332 26.9439C88.9117 26.9439 89.6941 26.8191 90.3806 26.5719C91.067 26.3247 91.6743 26.0103 92.1999 25.6262C92.7255 25.2446 93.1504 24.8246 93.4744 24.3661V26.6847H97.1106V10.8508H93.4744V13.1406V13.1454ZM92.8311 21.4931C92.4015 22.2468 91.8471 22.8156 91.1702 23.1973C90.4934 23.5789 89.7541 23.7709 88.9525 23.7709C88.2084 23.7709 87.4932 23.5717 86.8043 23.1685C86.1179 22.7676 85.5587 22.194 85.129 21.4499C84.6994 20.7059 84.4858 19.7986 84.4858 18.7306C84.4858 17.6625 84.6994 16.736 85.129 16.0112C85.5587 15.2863 86.1179 14.7367 86.8043 14.3647C87.4908 13.9926 88.2084 13.8054 88.9525 13.8054C89.7541 13.8054 90.4934 13.9926 91.1702 14.3647C91.8471 14.7367 92.4015 15.2959 92.8311 16.04C93.2608 16.784 93.4744 17.7009 93.4744 18.7882C93.4744 19.8754 93.2608 20.7395 92.8311 21.4931Z" fill="#010127"/>
<path d="M114.68 10.8557H109.812L104.285 17.6842V5.50099H100.648V26.6896H104.285V19.9212L109.896 26.6896H114.706L107.561 18.7763L114.68 10.8557Z" fill="#010127"/>
<path d="M128.56 16.8249C127.94 16.4145 127.261 16.0761 126.527 15.8073C125.792 15.5409 125.058 15.3105 124.321 15.1208C123.587 14.9288 122.907 14.7104 122.288 14.4632C121.666 14.216 121.167 13.9088 120.786 13.5463C120.404 13.1839 120.212 12.6967 120.212 12.087C120.212 11.4774 120.344 11.0094 120.613 10.6277C120.879 10.2461 121.244 9.96529 121.7 9.78288C122.158 9.60047 122.674 9.51167 123.246 9.51167C123.894 9.53087 124.443 9.66047 124.892 9.89809C125.341 10.1381 125.694 10.4381 125.951 10.8006C126.208 11.163 126.347 11.5734 126.366 12.0318H130.403C130.288 10.8486 129.935 9.84528 129.345 9.02443C128.752 8.20357 127.95 7.57473 126.94 7.1355C125.927 6.69627 124.763 6.47786 123.447 6.47786C122.132 6.47786 120.86 6.70587 119.811 7.1643C118.762 7.62273 117.946 8.28038 117.363 9.13964C116.78 9.99889 116.489 11.019 116.489 12.2022C116.489 13.2511 116.674 14.1104 117.049 14.78C117.421 15.4473 117.917 15.9873 118.537 16.3977C119.156 16.8081 119.835 17.1322 120.57 17.3722C121.304 17.6098 122.038 17.8306 122.775 18.0298C123.51 18.229 124.191 18.4499 124.823 18.6875C125.451 18.9275 125.958 19.2371 126.34 19.6187C126.721 20.0004 126.913 20.526 126.913 21.1932C126.913 21.6901 126.779 22.1437 126.512 22.5541C126.246 22.9646 125.869 23.2886 125.382 23.5286C124.895 23.7686 124.309 23.8862 123.62 23.8862C123.104 23.8862 122.65 23.8142 122.259 23.6726C121.868 23.5286 121.534 23.3342 121.256 23.087C120.98 22.8398 120.759 22.5373 120.598 22.1845C120.435 21.8317 120.337 21.4645 120.298 21.0828H116.405C116.424 22.2853 116.753 23.327 117.394 24.203C118.033 25.0815 118.901 25.7487 120.001 26.2072C121.098 26.6656 122.314 26.8936 123.651 26.8936C125.159 26.8936 126.428 26.6128 127.46 26.0488C128.49 25.4871 129.277 24.7551 129.822 23.8574C130.367 22.9598 130.638 21.9973 130.638 20.9652C130.638 19.9332 130.446 19.1147 130.065 18.4451C129.683 17.7778 129.181 17.2378 128.562 16.8273L128.56 16.8249Z" fill="#010127"/>
<path d="M144.627 11.5997C143.472 10.9516 142.14 10.6252 140.633 10.6252C139.125 10.6252 137.688 10.954 136.495 11.6141C135.302 12.2717 134.371 13.2126 133.703 14.4343C133.036 15.656 132.7 17.1057 132.7 18.7858C132.7 20.4659 133.043 21.8628 133.73 23.094C134.416 24.3253 135.352 25.2758 136.536 25.943C137.719 26.6103 139.085 26.9463 140.63 26.9463C141.929 26.9463 143.074 26.7183 144.065 26.2599C145.056 25.8014 145.884 25.1918 146.542 24.4285C147.2 23.6653 147.663 22.8156 147.929 21.8796H144.036C143.731 22.434 143.316 22.9116 142.79 23.3101C142.265 23.7109 141.526 23.9125 140.57 23.9125C139.807 23.9125 139.106 23.7349 138.465 23.3821C137.825 23.0292 137.321 22.518 136.948 21.8508C136.648 21.3107 136.471 20.6915 136.413 19.9906H148.244C148.282 19.7434 148.311 19.4794 148.33 19.2034C148.349 18.9274 148.359 18.6634 148.359 18.4161C148.359 16.8704 148.025 15.5095 147.356 14.3359C146.688 13.1622 145.776 12.2501 144.622 11.6021L144.627 11.5997ZM136.449 17.3553C136.526 16.7528 136.689 16.2176 136.941 15.752C137.304 15.0847 137.791 14.5639 138.401 14.1919C139.01 13.8198 139.718 13.6326 140.52 13.6326C141.055 13.6326 141.569 13.7142 142.066 13.875C142.562 14.0383 142.997 14.2855 143.369 14.6191C143.741 14.9527 144.036 15.3487 144.257 15.8072C144.475 16.2656 144.586 16.7816 144.586 17.3529H136.449V17.3553Z" fill="#010127"/>
<path d="M162.522 13.1454C162.198 12.7062 161.783 12.2957 161.277 11.9141C160.77 11.5325 160.175 11.2229 159.486 10.9828C158.8 10.7452 158.017 10.6252 157.139 10.6252C155.783 10.6252 154.547 10.954 153.43 11.6141C152.314 12.2717 151.431 13.2126 150.783 14.4343C150.133 15.656 149.809 17.0889 149.809 18.7282C149.809 20.3675 150.133 21.7764 150.783 23.0076C151.431 24.2389 152.314 25.2038 153.43 25.8998C154.547 26.5959 155.763 26.9439 157.081 26.9439C157.96 26.9439 158.742 26.8191 159.428 26.5719C160.115 26.3247 160.722 26.0103 161.248 25.6262C161.773 25.2446 162.196 24.8246 162.522 24.3661V26.6847H166.158V10.8508H162.522V13.1406V13.1454ZM161.877 21.4931C161.447 22.2468 160.893 22.8156 160.216 23.1973C159.539 23.5789 158.8 23.7709 157.996 23.7709C157.251 23.7709 156.536 23.5717 155.847 23.1685C155.161 22.7676 154.602 22.194 154.172 21.4499C153.742 20.7059 153.529 19.7986 153.529 18.7306C153.529 17.6625 153.742 16.736 154.172 16.0112C154.602 15.2863 155.161 14.7367 155.847 14.3647C156.534 13.9926 157.249 13.8054 157.996 13.8054C158.797 13.8054 159.536 13.9926 160.216 14.3647C160.893 14.7367 161.447 15.2959 161.877 16.04C162.306 16.784 162.52 17.7009 162.52 18.7882C162.52 19.8754 162.306 20.7395 161.877 21.4931Z" fill="#010127"/>
<path d="M174.514 23.2526C174.257 23.0054 174.127 22.6045 174.127 22.0501V13.832H177.821V10.8534H174.127V6.9315H170.462V10.8534H168.573V13.832H170.462V22.0213C170.462 23.1662 170.657 24.0782 171.05 24.7551C171.441 25.4319 172.001 25.924 172.726 26.2288C173.45 26.5336 174.3 26.6872 175.274 26.6872H177.852V23.6246H175.877C175.226 23.6246 174.775 23.4998 174.516 23.2526H174.514Z" fill="#010127"/>
<path d="M191.224 20.1899C190.89 19.6546 190.451 19.2082 189.906 18.8434C189.361 18.4809 188.776 18.1953 188.144 17.9841C187.515 17.7753 186.879 17.5929 186.241 17.4393C185.6 17.2857 185.024 17.1153 184.508 16.9232C183.992 16.7336 183.567 16.5128 183.234 16.2656C182.9 16.0184 182.732 15.6752 182.732 15.2359C182.732 14.8735 182.823 14.5735 183.003 14.3335C183.186 14.0959 183.462 13.9086 183.834 13.7742C184.206 13.6398 184.659 13.575 185.194 13.575C186.054 13.575 186.726 13.7742 187.213 14.1751C187.7 14.5759 187.971 15.1111 188.029 15.7784H191.55C191.493 14.7295 191.202 13.8174 190.676 13.0446C190.151 12.2717 189.436 11.6741 188.528 11.2541C187.621 10.834 186.558 10.6252 185.336 10.6252C184.114 10.6252 182.955 10.8364 182.029 11.2541C181.102 11.6741 180.392 12.2333 179.895 12.9294C179.398 13.6254 179.151 14.4031 179.151 15.2623C179.151 16.1216 179.317 16.7744 179.653 17.3385C179.986 17.9025 180.416 18.3513 180.941 18.685C181.467 19.0186 182.053 19.297 182.703 19.5154C183.351 19.7362 183.997 19.921 184.635 20.0747C185.274 20.2283 185.867 20.3891 186.411 20.5619C186.956 20.7347 187.391 20.9531 187.715 21.2195C188.039 21.4859 188.202 21.822 188.202 22.2228C188.202 22.566 188.101 22.8732 187.902 23.1397C187.703 23.4061 187.405 23.6125 187.014 23.7541C186.623 23.8981 186.131 23.9677 185.54 23.9677C184.7 23.9677 184.009 23.7589 183.464 23.3389C182.919 22.9188 182.619 22.3932 182.562 21.7644H178.839C178.896 22.7388 179.216 23.6173 179.799 24.3997C180.382 25.1822 181.169 25.8014 182.161 26.2599C183.152 26.7183 184.299 26.9463 185.598 26.9463C186.896 26.9463 187.974 26.7351 188.891 26.3175C189.808 25.8974 190.513 25.3358 191.01 24.6278C191.507 23.9221 191.754 23.1204 191.754 22.2228C191.735 21.4019 191.557 20.7251 191.224 20.1899Z" fill="#010127"/>
<path d="M22.5496 -0.000221252H13.7891V7.35147H28.358C32.3375 7.35147 35.5753 10.5893 35.5753 14.5711C35.5753 5.92337 30.2782 -0.000221252 22.552 -0.000221252H22.5496Z" fill="url(#paint0_linear_1206_77141)"/>
<path d="M9.25977 17.3578L9.25977 35.9998H16.5443V17.3578H9.25977Z" fill="url(#paint1_linear_1206_77141)"/>
<path d="M0 9.64131L0 35.9975H7.28449L7.28449 9.64131H0Z" fill="url(#paint2_linear_1206_77141)"/>
<path d="M28.3582 -0.000221252H22.5498C30.2784 -0.000221252 35.5731 5.92337 35.5731 14.5711C35.5731 18.5506 32.3353 21.7884 28.3558 21.7884H18.5176V35.9998H25.8021V29.1401H28.3558C32.3785 29.1401 36.0195 27.5104 38.6573 24.8726C41.2951 22.2349 42.9248 18.5938 42.9248 14.5711C42.9248 6.52341 36.4012 -0.000221252 28.3558 -0.000221252H28.3582Z" fill="url(#paint3_linear_1206_77141)"/>
<defs>
<linearGradient id="paint0_linear_1206_77141" x1="41.5877" y1="17.2785" x2="-8.72683" y2="-14.5932" gradientUnits="userSpaceOnUse">
<stop stop-color="#398AFF"/>
<stop offset="1" stop-color="#22F4BD"/>
</linearGradient>
<linearGradient id="paint1_linear_1206_77141" x1="8.66212" y1="40.6225" x2="25.8113" y2="-15.7645" gradientUnits="userSpaceOnUse">
<stop stop-color="#398AFF"/>
<stop offset="1" stop-color="#22F4BD"/>
</linearGradient>
<linearGradient id="paint2_linear_1206_77141" x1="-0.885661" y1="37.716" x2="16.2635" y2="-18.6686" gradientUnits="userSpaceOnUse">
<stop stop-color="#398AFF"/>
<stop offset="1" stop-color="#22F4BD"/>
</linearGradient>
<linearGradient id="paint3_linear_1206_77141" x1="18.52" y1="-102.009" x2="42.9272" y2="-102.009" gradientUnits="userSpaceOnUse">
<stop stop-color="#398AFF"/>
<stop offset="1" stop-color="#22F4BD"/>
</linearGradient>
</defs>
</svg>
